<svg width="86" height="86" viewBox="0 0 86 86" fill="none" xmlns="http://www.w3.org/2000/svg">
<rect x="0.5" y="0.5" width="85" height="85" rx="4.5" fill="#0D0208" stroke="#3D4641"/>
<path d="M62.3734 32.0557C65.1055 32.0557 67.4869 32.7572 69.5175 34.1602C71.5851 35.5263 73.2096 37.4092 74.3911 39.8091C75.5725 42.2089 76.1633 44.9411 76.1633 48.0055C76.1633 51.033 75.5725 53.7651 74.3911 56.2019C73.2096 58.6018 71.5851 60.5032 69.5175 61.9062C67.4869 63.2722 65.1055 63.9553 62.3734 63.9553C60.3796 63.9553 58.5336 63.5491 56.8352 62.7369C55.1369 61.8877 53.7524 60.7801 52.6817 59.414L52.5155 63.2907H46.2574V22.4748H52.7924V36.3755C53.9 35.0463 55.2846 33.9941 56.946 33.2187C58.6074 32.4434 60.4166 32.0557 62.3734 32.0557ZM60.8227 58.4725C62.558 58.4725 64.0717 58.011 65.3639 57.088C66.6562 56.165 67.6715 54.9281 68.4099 53.3775C69.1483 51.7899 69.5175 49.9992 69.5175 48.0055C69.5175 45.9749 69.1483 44.1842 68.4099 42.6335C67.6715 41.0459 66.6562 39.8091 65.3639 38.923C64.0717 38 62.558 37.5385 60.8227 37.5385C59.0136 37.5385 57.3891 38.0738 55.9491 39.1445C54.5092 40.1783 53.457 41.6182 52.7924 43.4643V52.4914C53.457 54.3005 54.5092 55.7589 55.9491 56.8665C57.3891 57.9372 59.0136 58.4725 60.8227 58.4725Z" fill="white"/>
<path d="M14.4918 28.8041L9.72687 22.4748H39.6327V28.8041H14.4918Z" fill="#00FF87"/>
<path d="M23.1358 40.2758L18.3685 33.9466H39.6327V40.2758H23.1358Z" fill="#00FF87"/>
<path d="M18.3619 51.7477L23.1296 45.4184H39.6327V51.7477H18.3619Z" fill="#00FF87"/>
<path d="M9.7139 63.2195L14.4856 56.8902H39.6327V63.2195H9.7139Z" fill="#00FF87"/>
</svg>
